<?xml version="1.0" encoding="utf-8"?>
<!-- Generator: Adobe Illustrator 23.0.4, SVG Export Plug-In . SVG Version: 6.00 Build 0)  -->
<svg version="1.1" id="smalldots" xmlns="http://www.w3.org/2000/svg" xmlns:xlink="http://www.w3.org/1999/xlink" x="0px" y="0px"
	 viewBox="0 0 129 115" style="enable-background:new 0 0 129 115;" xml:space="preserve">
<circle id="Oval" style="fill-rule:evenodd;clip-rule:evenodd;fill:#44505d;" cx="1.5" cy="1.5" r="1.5"/>
<circle style="fill-rule:evenodd;clip-rule:evenodd;fill:#44505d;" cx="43.5" cy="1.5" r="1.5"/>
<circle style="fill-rule:evenodd;clip-rule:evenodd;fill:#44505d;" cx="85.5" cy="1.5" r="1.5"/>
<circle style="fill-rule:evenodd;clip-rule:evenodd;fill:#44505d;" cx="127.5" cy="1.5" r="1.5"/>
<circle style="fill-rule:evenodd;clip-rule:evenodd;fill:#44505d;" cx="1.5" cy="29.5" r="1.5"/>
<circle style="fill-rule:evenodd;clip-rule:evenodd;fill:#44505d;" cx="43.5" cy="29.5" r="1.5"/>
<circle style="fill-rule:evenodd;clip-rule:evenodd;fill:#44505d;" cx="85.5" cy="29.5" r="1.5"/>
<circle style="fill-rule:evenodd;clip-rule:evenodd;fill:#44505d;" cx="127.5" cy="29.5" r="1.5"/>
<circle style="fill-rule:evenodd;clip-rule:evenodd;fill:#44505d;" cx="1.5" cy="57.5" r="1.5"/>
<circle style="fill-rule:evenodd;clip-rule:evenodd;fill:#44505d;" cx="43.5" cy="57.5" r="1.5"/>
<circle style="fill-rule:evenodd;clip-rule:evenodd;fill:#44505d;" cx="85.5" cy="57.5" r="1.5"/>
<circle style="fill-rule:evenodd;clip-rule:evenodd;fill:#44505d;" cx="127.5" cy="57.5" r="1.5"/>
<circle style="fill-rule:evenodd;clip-rule:evenodd;fill:#44505d;" cx="1.5" cy="85.5" r="1.5"/>
<circle style="fill-rule:evenodd;clip-rule:evenodd;fill:#44505d;" cx="43.5" cy="85.5" r="1.5"/>
<circle style="fill-rule:evenodd;clip-rule:evenodd;fill:#44505d;" cx="85.5" cy="85.5" r="1.5"/>
<circle style="fill-rule:evenodd;clip-rule:evenodd;fill:#44505d;" cx="127.5" cy="85.5" r="1.5"/>
<circle style="fill-rule:evenodd;clip-rule:evenodd;fill:#44505d;" cx="1.5" cy="113.5" r="1.5"/>
<circle style="fill-rule:evenodd;clip-rule:evenodd;fill:#44505d;" cx="43.5" cy="113.5" r="1.5"/>
<circle style="fill-rule:evenodd;clip-rule:evenodd;fill:#44505d;" cx="85.5" cy="113.5" r="1.5"/>
<circle style="fill-rule:evenodd;clip-rule:evenodd;fill:#44505d;" cx="127.5" cy="113.5" r="1.5"/>
</svg>
